<svg width="272" height="273" viewBox="0 0 272 273" fill="none" xmlns="http://www.w3.org/2000/svg">
<g clip-path="url(#clip0)">
<path d="M221.284 30.5623C220.131 29.5744 218.978 28.7512 217.826 27.928L27.329 218.424C28.1522 219.577 29.1401 220.73 29.9633 221.882L221.119 30.727L221.284 30.5623Z" fill="#414141"/>
<path d="M174.693 6.02543C173.046 5.53149 171.565 5.20219 169.918 4.70825L4.28265 170.343C4.61195 171.99 5.10589 173.472 5.59983 175.118L174.693 6.02543Z" fill="#414141"/>
<path d="M207.458 20.6722C206.141 19.849 204.988 19.1904 203.671 18.3672L17.9485 204.088C18.6071 205.406 19.4303 206.558 20.2536 207.875L207.458 20.6722Z" fill="#414141"/>
<path d="M191.981 12.4554C190.499 11.7968 189.182 11.1382 187.7 10.6443L10.21 188.133C10.8686 189.615 11.3625 190.932 12.0211 192.414L191.981 12.4554Z" fill="#414141"/>
<path d="M155.261 1.89321C153.45 1.56391 151.639 1.39927 149.828 1.23462L0.657349 150.405C0.821996 152.216 0.986643 154.027 1.31594 155.838L155.261 1.89321Z" fill="#414141"/>
<path d="M232.153 40.2767C231.66 39.7828 231.166 39.2889 230.672 38.7949L38.3634 231.102C38.8573 231.596 39.3513 232.09 39.8452 232.584C40.3392 233.078 40.8331 233.572 41.3271 234.066L233.635 41.7586C233.141 41.2646 232.647 40.7707 232.153 40.2767Z" fill="#414141"/>
<path d="M133.035 0.437744C130.895 0.437744 128.754 0.602391 126.614 0.767038L0.329295 127.051C0.164647 129.192 0.164647 131.332 0 133.473L133.035 0.437744Z" fill="#414141"/>
<path d="M3.29514 106.475L106.035 3.73535C103.236 4.39394 100.602 5.05252 97.8029 5.87576L5.27091 98.4071C4.44767 101.041 3.78908 103.84 3.13049 106.639L3.29514 106.475Z" fill="#414141"/>
<path d="M271.671 145.825C271.835 143.684 271.835 141.544 272 139.403L138.965 272.438C141.105 272.438 143.246 272.273 145.386 272.108L271.671 145.825Z" fill="#414141"/>
<path d="M271.173 122.613C271.009 120.802 270.844 118.991 270.515 117.18L116.569 271.125C118.38 271.454 120.192 271.619 122.003 271.783L271.173 122.613Z" fill="#414141"/>
<path d="M66.8498 19.3618C57.1356 25.1244 48.08 32.0396 39.683 40.4366C31.4506 48.6689 24.3708 57.8891 18.6082 67.6033L66.6852 19.5265L66.8498 19.3618Z" fill="#414141"/>
<path d="M266.565 174.661C267.388 172.027 268.047 169.228 268.705 166.429L165.965 269.168C168.764 268.51 171.399 267.851 174.198 267.028L266.73 174.497L266.565 174.661Z" fill="#414141"/>
<path d="M204.987 253.631C214.701 247.868 223.757 240.953 232.154 232.556C240.386 224.324 247.466 215.104 253.229 205.389L205.152 253.466L204.987 253.631Z" fill="#414141"/>
<path d="M253.887 68.7937C253.229 67.4765 252.405 66.324 251.582 65.0068L64.3779 252.21C65.6951 253.033 66.8476 253.692 68.1648 254.515L253.887 68.7937Z" fill="#414141"/>
<path d="M244.499 54.6302C243.676 53.4777 242.688 52.3251 241.865 51.1726L50.7095 242.327C51.862 243.315 53.0146 244.138 54.1671 244.961L244.664 54.4655L244.499 54.6302Z" fill="#414141"/>
<path d="M267.554 102.538C267.06 100.892 266.731 99.4101 266.237 97.7637L97.1441 266.856C98.7906 267.35 100.272 267.679 101.919 268.173L267.554 102.538Z" fill="#414141"/>
<path d="M261.79 84.7581C261.132 83.2763 260.638 81.9591 259.979 80.4773L80.0196 260.436C81.5014 261.095 82.8186 261.753 84.3004 262.247L261.79 84.7581Z" fill="#414141"/>
</g>
<defs>
<clipPath id="clip0">
<rect width="272" height="272" fill="white" transform="translate(0 0.437744)"/>
</clipPath>
</defs>
</svg>
