<svg width="451" height="635" viewBox="0 0 451 635" fill="none" xmlns="http://www.w3.org/2000/svg">
<g clip-path="url(#clip0)">
<path d="M225.5 576.416C227.008 576.416 228.328 577.738 228.328 579.249C228.328 580.759 227.008 582.081 225.5 582.081C223.991 582.081 222.672 580.759 222.672 579.249C222.672 577.738 223.991 576.416 225.5 576.416Z" fill="#3FC1C9"/>
<path d="M225.5 628.692C227.008 628.692 228.328 630.014 228.328 631.525C228.328 633.035 227.008 634.357 225.5 634.357C223.991 634.357 222.672 633.035 222.672 631.525C222.672 630.014 223.991 628.692 225.5 628.692Z" fill="#3FC1C9"/>
<path d="M180.815 576.416C182.324 576.416 183.643 577.738 183.643 579.249C183.643 580.759 182.324 582.081 180.815 582.081C179.307 582.081 177.987 580.759 177.987 579.249C177.987 577.738 179.307 576.416 180.815 576.416Z" fill="#3FC1C9"/>
<path d="M180.815 628.692C182.324 628.692 183.643 630.014 183.643 631.525C183.643 633.035 182.324 634.357 180.815 634.357C179.307 634.357 177.987 633.035 177.987 631.525C177.987 630.014 179.307 628.692 180.815 628.692Z" fill="#3FC1C9"/>
<path d="M136.317 576.416C137.826 576.416 139.145 577.738 139.145 579.249C139.145 580.759 137.826 582.081 136.317 582.081C134.809 582.081 133.489 580.759 133.489 579.249C133.489 577.738 134.809 576.416 136.317 576.416Z" fill="#3FC1C9"/>
<path d="M136.317 628.692C137.826 628.692 139.145 630.014 139.145 631.525C139.145 633.035 137.826 634.357 136.317 634.357C134.809 634.357 133.489 633.035 133.489 631.525C133.489 630.014 134.809 628.692 136.317 628.692Z" fill="#3FC1C9"/>
<path d="M91.82 576.416C93.3284 576.416 94.6482 577.738 94.6482 579.249C94.6482 580.759 93.3284 582.081 91.82 582.081C90.3117 582.081 88.9919 580.759 88.9919 579.249C88.9919 577.738 90.3117 576.416 91.82 576.416Z" fill="#3FC1C9"/>
<path d="M91.82 628.692C93.3284 628.692 94.6482 630.014 94.6482 631.525C94.6482 633.035 93.3284 634.357 91.82 634.357C90.3117 634.357 88.9919 633.035 88.9919 631.525C88.9919 630.014 90.3117 628.692 91.82 628.692Z" fill="#3FC1C9"/>
<path d="M47.3253 576.416C48.8337 576.416 50.1535 577.738 50.1535 579.249C50.1535 580.759 48.8337 582.081 47.3253 582.081C45.817 582.081 44.4971 580.759 44.4971 579.249C44.4971 577.738 45.817 576.416 47.3253 576.416Z" fill="#3FC1C9"/>
<path d="M47.3253 628.692C48.8337 628.692 50.1535 630.014 50.1535 631.525C50.1535 633.035 48.8337 634.357 47.3253 634.357C45.817 634.357 44.4971 633.035 44.4971 631.525C44.4971 630.014 45.817 628.692 47.3253 628.692Z" fill="#3FC1C9"/>
<path d="M448.172 0.651855C449.68 0.651855 451 1.97381 451 3.48462C451 4.99543 449.68 6.31738 448.172 6.31738C446.664 6.31738 445.344 4.99543 445.344 3.48462C445.344 1.97381 446.664 0.651855 448.172 0.651855Z" fill="#3FC1C9"/>
<path d="M448.172 52.9258C449.68 52.9258 451 54.2477 451 55.7585C451 57.2694 449.68 58.5913 448.172 58.5913C446.664 58.5913 445.344 57.2694 445.344 55.7585C445.344 54.2477 446.664 52.9258 448.172 52.9258Z" fill="#3FC1C9"/>
<path d="M448.172 105.332C449.68 105.332 451 106.654 451 108.165C451 109.675 449.68 110.997 448.172 110.997C446.664 110.997 445.344 109.675 445.344 108.165C445.344 106.654 446.664 105.332 448.172 105.332Z" fill="#3FC1C9"/>
<path d="M448.172 157.606C449.68 157.606 451 158.928 451 160.438C451 161.949 449.68 163.271 448.172 163.271C446.664 163.271 445.344 161.949 445.344 160.438C445.344 158.928 446.664 157.606 448.172 157.606Z" fill="#3FC1C9"/>
<path d="M448.172 210.057C449.68 210.057 451 211.379 451 212.89C451 214.401 449.68 215.723 448.172 215.723C446.664 215.723 445.344 214.401 445.344 212.89C445.344 211.379 446.664 210.057 448.172 210.057Z" fill="#3FC1C9"/>
<path d="M448.172 262.331C449.68 262.331 451 263.653 451 265.164C451 266.675 449.68 267.997 448.172 267.997C446.664 267.997 445.344 266.675 445.344 265.164C445.344 263.653 446.664 262.331 448.172 262.331Z" fill="#3FC1C9"/>
<path d="M448.172 314.737C449.68 314.737 451 316.059 451 317.57C451 319.08 449.68 320.402 448.172 320.402C446.664 320.402 445.344 319.08 445.344 317.57C445.344 316.059 446.664 314.737 448.172 314.737Z" fill="#3FC1C9"/>
<path d="M448.172 367.011C449.68 367.011 451 368.333 451 369.844C451 371.354 449.68 372.676 448.172 372.676C446.664 372.676 445.344 371.354 445.344 369.844C445.344 368.333 446.664 367.011 448.172 367.011Z" fill="#3FC1C9"/>
<path d="M448.172 419.505C449.68 419.505 451 420.827 451 422.338C451 423.849 449.68 425.171 448.172 425.171C446.664 425.171 445.344 423.849 445.344 422.338C445.344 420.827 446.664 419.505 448.172 419.505Z" fill="#3FC1C9"/>
<path d="M448.172 471.868C449.68 471.868 451 473.19 451 474.701C451 476.211 449.68 477.533 448.172 477.533C446.664 477.533 445.344 476.211 445.344 474.701C445.344 473.19 446.664 471.868 448.172 471.868Z" fill="#3FC1C9"/>
<path d="M448.172 524.142C449.68 524.142 451 525.464 451 526.975C451 528.485 449.68 529.807 448.172 529.807C446.664 529.807 445.344 528.485 445.344 526.975C445.344 525.464 446.664 524.142 448.172 524.142Z" fill="#3FC1C9"/>
<path d="M448.172 576.416C449.68 576.416 451 577.738 451 579.249C451 580.759 449.68 582.081 448.172 582.081C446.664 582.081 445.344 580.759 445.344 579.249C445.344 577.738 446.664 576.416 448.172 576.416Z" fill="#3FC1C9"/>
<path d="M448.172 628.692C449.68 628.692 451 630.014 451 631.525C451 633.035 449.68 634.357 448.172 634.357C446.664 634.357 445.344 633.035 445.344 631.525C445.344 630.014 446.664 628.692 448.172 628.692Z" fill="#3FC1C9"/>
<path d="M403.486 0.651855C404.995 0.651855 406.315 1.97381 406.315 3.48462C406.315 4.99543 404.995 6.31738 403.486 6.31738C401.978 6.31738 400.658 4.99543 400.658 3.48462C400.658 1.97381 401.978 0.651855 403.486 0.651855Z" fill="#3FC1C9"/>
<path d="M403.486 52.9258C404.995 52.9258 406.315 54.2477 406.315 55.7585C406.315 57.2694 404.995 58.5913 403.486 58.5913C401.978 58.5913 400.658 57.2694 400.658 55.7585C400.658 54.2477 401.978 52.9258 403.486 52.9258Z" fill="#3FC1C9"/>
<path d="M403.486 105.332C404.995 105.332 406.315 106.654 406.315 108.165C406.315 109.675 404.995 110.997 403.486 110.997C401.978 110.997 400.658 109.675 400.658 108.165C400.658 106.654 401.978 105.332 403.486 105.332Z" fill="#3FC1C9"/>
<path d="M403.486 157.606C404.995 157.606 406.315 158.928 406.315 160.438C406.315 161.949 404.995 163.271 403.486 163.271C401.978 163.271 400.658 161.949 400.658 160.438C400.658 158.928 401.978 157.606 403.486 157.606Z" fill="#3FC1C9"/>
<path d="M403.486 210.057C404.995 210.057 406.315 211.379 406.315 212.89C406.315 214.401 404.995 215.723 403.486 215.723C401.978 215.723 400.658 214.401 400.658 212.89C400.658 211.379 401.978 210.057 403.486 210.057Z" fill="#3FC1C9"/>
<path d="M403.486 262.331C404.995 262.331 406.315 263.653 406.315 265.164C406.315 266.675 404.995 267.997 403.486 267.997C401.978 267.997 400.658 266.675 400.658 265.164C400.658 263.653 401.978 262.331 403.486 262.331Z" fill="#3FC1C9"/>
<path d="M403.486 314.737C404.995 314.737 406.315 316.059 406.315 317.57C406.315 319.08 404.995 320.402 403.486 320.402C401.978 320.402 400.658 319.08 400.658 317.57C400.658 316.059 401.978 314.737 403.486 314.737Z" fill="#3FC1C9"/>
<path d="M403.486 419.505C404.995 419.505 406.315 420.827 406.315 422.338C406.315 423.849 404.995 425.171 403.486 425.171C401.978 425.171 400.658 423.849 400.658 422.338C400.658 420.827 401.978 419.505 403.486 419.505Z" fill="#3FC1C9"/>
<path d="M403.486 367.011C404.995 367.011 406.315 368.333 406.315 369.844C406.315 371.354 404.995 372.676 403.486 372.676C401.978 372.676 400.658 371.354 400.658 369.844C400.658 368.333 401.978 367.011 403.486 367.011Z" fill="#3FC1C9"/>
<path d="M403.486 471.868C404.995 471.868 406.315 473.19 406.315 474.701C406.315 476.211 404.995 477.533 403.486 477.533C401.978 477.533 400.658 476.211 400.658 474.701C400.658 473.19 401.978 471.868 403.486 471.868Z" fill="#3FC1C9"/>
<path d="M403.486 524.142C404.995 524.142 406.315 525.464 406.315 526.975C406.315 528.485 404.995 529.807 403.486 529.807C401.978 529.807 400.658 528.485 400.658 526.975C400.658 525.464 401.978 524.142 403.486 524.142Z" fill="#3FC1C9"/>
<path d="M403.486 576.416C404.995 576.416 406.315 577.738 406.315 579.249C406.315 580.759 404.995 582.081 403.486 582.081C401.978 582.081 400.658 580.759 400.658 579.249C400.658 577.738 401.978 576.416 403.486 576.416Z" fill="#3FC1C9"/>
<path d="M403.486 628.692C404.995 628.692 406.315 630.014 406.315 631.525C406.315 633.035 404.995 634.357 403.486 634.357C401.978 634.357 400.658 633.035 400.658 631.525C400.658 630.014 401.978 628.692 403.486 628.692Z" fill="#3FC1C9"/>
<path d="M358.99 0.651855C360.498 0.651855 361.818 1.97381 361.818 3.48462C361.818 4.99543 360.498 6.31738 358.99 6.31738C357.481 6.31738 356.161 4.99543 356.161 3.48462C356.161 1.97381 357.481 0.651855 358.99 0.651855Z" fill="#3FC1C9"/>
<path d="M358.99 52.9258C360.498 52.9258 361.818 54.2477 361.818 55.7585C361.818 57.2694 360.498 58.5913 358.99 58.5913C357.481 58.5913 356.161 57.2694 356.161 55.7585C356.161 54.2477 357.481 52.9258 358.99 52.9258Z" fill="#3FC1C9"/>
<path d="M358.99 105.332C360.498 105.332 361.818 106.654 361.818 108.165C361.818 109.675 360.498 110.997 358.99 110.997C357.481 110.997 356.161 109.675 356.161 108.165C356.161 106.654 357.481 105.332 358.99 105.332Z" fill="#3FC1C9"/>
<path d="M358.99 157.606C360.498 157.606 361.818 158.928 361.818 160.438C361.818 161.949 360.498 163.271 358.99 163.271C357.481 163.271 356.161 161.949 356.161 160.438C356.161 158.928 357.481 157.606 358.99 157.606Z" fill="#3FC1C9"/>
<path d="M358.99 210.057C360.498 210.057 361.818 211.379 361.818 212.89C361.818 214.401 360.498 215.723 358.99 215.723C357.481 215.723 356.161 214.401 356.161 212.89C356.161 211.379 357.481 210.057 358.99 210.057Z" fill="#3FC1C9"/>
<path d="M358.99 262.331C360.498 262.331 361.818 263.653 361.818 265.164C361.818 266.675 360.498 267.997 358.99 267.997C357.481 267.997 356.161 266.675 356.161 265.164C356.161 263.653 357.481 262.331 358.99 262.331Z" fill="#3FC1C9"/>
<path d="M358.99 314.737C360.498 314.737 361.818 316.059 361.818 317.57C361.818 319.08 360.498 320.402 358.99 320.402C357.481 320.402 356.161 319.08 356.161 317.57C356.161 316.059 357.481 314.737 358.99 314.737Z" fill="#3FC1C9"/>
<path d="M358.99 367.011C360.498 367.011 361.818 368.333 361.818 369.844C361.818 371.354 360.498 372.676 358.99 372.676C357.481 372.676 356.161 371.354 356.161 369.844C356.161 368.333 357.481 367.011 358.99 367.011Z" fill="#3FC1C9"/>
<path d="M358.99 419.505C360.498 419.505 361.818 420.827 361.818 422.338C361.818 423.849 360.498 425.171 358.99 425.171C357.481 425.171 356.161 423.849 356.161 422.338C356.161 420.827 357.481 419.505 358.99 419.505Z" fill="#3FC1C9"/>
<path d="M358.99 471.868C360.498 471.868 361.818 473.19 361.818 474.701C361.818 476.211 360.498 477.533 358.99 477.533C357.481 477.533 356.161 476.211 356.161 474.701C356.161 473.19 357.481 471.868 358.99 471.868Z" fill="#3FC1C9"/>
<path d="M358.99 524.142C360.498 524.142 361.818 525.464 361.818 526.975C361.818 528.485 360.498 529.807 358.99 529.807C357.481 529.807 356.161 528.485 356.161 526.975C356.161 525.464 357.481 524.142 358.99 524.142Z" fill="#3FC1C9"/>
<path d="M358.99 576.416C360.498 576.416 361.818 577.738 361.818 579.249C361.818 580.759 360.498 582.081 358.99 582.081C357.481 582.081 356.161 580.759 356.161 579.249C356.161 577.738 357.481 576.416 358.99 576.416Z" fill="#3FC1C9"/>
<path d="M358.99 628.692C360.498 628.692 361.818 630.014 361.818 631.525C361.818 633.035 360.498 634.357 358.99 634.357C357.481 634.357 356.161 633.035 356.161 631.525C356.161 630.014 357.481 628.692 358.99 628.692Z" fill="#3FC1C9"/>
<path d="M314.491 576.416C316 576.416 317.319 577.738 317.319 579.249C317.319 580.759 316 582.081 314.491 582.081C312.983 582.081 311.663 580.759 311.663 579.249C311.663 577.738 312.983 576.416 314.491 576.416Z" fill="#3FC1C9"/>
<path d="M314.491 628.692C316 628.692 317.319 630.014 317.319 631.525C317.319 633.035 316 634.357 314.491 634.357C312.983 634.357 311.663 633.035 311.663 631.525C311.663 630.014 312.983 628.692 314.491 628.692Z" fill="#3FC1C9"/>
<path d="M269.997 576.416C271.506 576.416 272.825 577.738 272.825 579.249C272.825 580.759 271.506 582.081 269.997 582.081C268.489 582.081 267.169 580.759 267.169 579.249C267.169 577.738 268.489 576.416 269.997 576.416Z" fill="#3FC1C9"/>
<path d="M269.997 628.692C271.506 628.692 272.825 630.014 272.825 631.525C272.825 633.035 271.506 634.357 269.997 634.357C268.489 634.357 267.169 633.035 267.169 631.525C267.169 630.014 268.489 628.692 269.997 628.692Z" fill="#3FC1C9"/>
<path d="M2.82819 576.416C4.33655 576.416 5.65637 577.738 5.65637 579.249C5.65637 580.759 4.33655 582.081 2.82819 582.081C1.31982 582.081 0 580.759 0 579.249C0 577.738 1.31982 576.416 2.82819 576.416Z" fill="#3FC1C9"/>
<path d="M2.82819 628.692C4.33655 628.692 5.65637 630.014 5.65637 631.525C5.65637 633.035 4.33655 634.357 2.82819 634.357C1.31982 634.357 0 633.035 0 631.525C0 630.014 1.31982 628.692 2.82819 628.692Z" fill="#3FC1C9"/>
</g>
<defs>
<clipPath id="clip0">
<rect width="451" height="633.706" fill="white" transform="translate(0 0.651855)"/>
</clipPath>
</defs>
</svg>
