<?xml version="1.0"?>
<svg xmlns="http://www.w3.org/2000/svg" xmlns:xlink="http://www.w3.org/1999/xlink" xmlns:svgjs="http://svgjs.com/svgjs" version="1.1" width="512" height="512" x="0" y="0" viewBox="0 0 512 512" style="enable-background:new 0 0 512 512" xml:space="preserve" class=""><g><path xmlns="http://www.w3.org/2000/svg" d="m511.808594 255.90625c0 141.332031-114.570313 255.902344-255.902344 255.902344s-255.90625-114.570313-255.90625-255.902344 114.574219-255.90625 255.90625-255.90625 255.902344 114.574219 255.902344 255.90625zm0 0" fill="#3fc1c9" data-original="#4a7aff" style="" class=""/><path xmlns="http://www.w3.org/2000/svg" d="m512 255.777344c0-4.78125-.140625-9.523438-.402344-14.238282l-82.324218-82.328124-346.355469 209.910156 140.488281 140.492187c10.703125 1.363281 21.613281 2.066407 32.6875 2.066407 141.332031 0 255.90625-114.570313 255.90625-255.902344zm0 0" fill="#38aeb5" data-original="#0053bf" style="" class=""/><path xmlns="http://www.w3.org/2000/svg" d="m82.917969 159.210938h346.355469v209.910156h-346.355469zm0 0" fill="#ffe000" data-original="#ffe000" style="" class=""/><path xmlns="http://www.w3.org/2000/svg" d="m255.90625 159.210938h173.367188v209.910156h-173.367188zm0 0" fill="#ffc200" data-original="#ffc200" style=""/><path xmlns="http://www.w3.org/2000/svg" d="m429.273438 369.121094-173.367188-113.214844-172.988281 113.214844zm0 0" fill="#ffee6e" data-original="#ffee6e" style=""/><path xmlns="http://www.w3.org/2000/svg" d="m255.90625 255.90625v-.003906 113.21875h173.367188zm0 0" fill="#ffe45c" data-original="#ffe45c" style=""/><path xmlns="http://www.w3.org/2000/svg" d="m429.273438 159.210938-173.367188 153.074218-172.988281-153.074218zm0 0" fill="#fdba12" data-original="#fdba12" style=""/><path xmlns="http://www.w3.org/2000/svg" d="m429.273438 159.210938h-173.367188v153.074218zm0 0" fill="#ffa300" data-original="#ffa300" style="" class=""/></g></svg>
