<?xml version="1.0"?>
<svg xmlns="http://www.w3.org/2000/svg" xmlns:xlink="http://www.w3.org/1999/xlink" xmlns:svgjs="http://svgjs.com/svgjs" version="1.1" width="512" height="512" x="0" y="0" viewBox="0 0 512 512" style="enable-background:new 0 0 512 512" xml:space="preserve" class=""><g><path xmlns="http://www.w3.org/2000/svg" d="m512 256c0 141.386719-114.613281 256-256 256s-256-114.613281-256-256 114.613281-256 256-256 256 114.613281 256 256zm0 0" fill="#3fc1c9" data-original="#414952" style="" class=""/><path xmlns="http://www.w3.org/2000/svg" d="m459.773438 410.953125-226.335938-226.332031-78.820312 52.234375 32.210937 115.402343 147.515625 147.515626c50.429688-16.195313 94.035156-47.597657 125.429688-88.820313zm0 0" fill="#31a4ab" data-original="#23272b" style="" class=""/><path xmlns="http://www.w3.org/2000/svg" d="m511.398438 238.578125-126.648438-126.648437-50.71875 35.785156-57.96875-57.972656v91.574218l38.839844 38.835938-14.414063 10.066406 168.238281 168.234375c27.324219-40.722656 43.273438-89.722656 43.273438-142.453125 0-5.855469-.214844-11.664062-.601562-17.421875zm0 0" fill="#31a4ab" data-original="#23272b" style="" class=""/><path xmlns="http://www.w3.org/2000/svg" d="m276.0625 89.742188-45.625 45.617187 45.625 45.957031v-22.183594h108.6875v-47.203124h-108.6875zm0 0" fill="#fc5185" data-original="#ff432e" style="" class=""/><path xmlns="http://www.w3.org/2000/svg" d="m230.4375 135.359375 45.625 45.957031v-22.183594h108.6875v-23.800781zm0 0" fill="#fb3370" data-original="#db0404" style="" class=""/><path xmlns="http://www.w3.org/2000/svg" d="m409.175781 252.402344 45.625-45.613282-45.628906-45.957031.003906 22.183594h-108.6875v47.203125h108.6875zm0 0" fill="#ffe000" data-original="#ffe000" style="" class=""/><path xmlns="http://www.w3.org/2000/svg" d="m300.488281 206.667969v23.550781h108.6875v22.183594l45.625-45.613282zm0 0" fill="#ffc200" data-original="#ffc200" style="" class=""/><path xmlns="http://www.w3.org/2000/svg" d="m268.691406 329.164062c-37.171875-21.71875-68.175781-52.726562-89.898437-89.898437l42.617187-42.617187-86.8125-86.8125-52.832031 52.832031c21.484375 135.652343 127.875 242.039062 263.523437 263.523437 0 0 .003907 0 .003907-.003906v.003906l52.832031-52.832031-86.8125-86.8125zm0 0" fill="#ffffff" data-original="#ffffff" style="" class=""/><path xmlns="http://www.w3.org/2000/svg" d="m311.3125 286.546875-42.621094 42.617187c-16.398437-9.582031-31.59375-20.980468-45.328125-33.910156l-43.734375 50.5625c44.984375 41.613282 102.113282 70.3125 165.660156 80.375 0 0 0 0 .003907-.003906v.003906l52.832031-52.835937zm0 0" fill="#e9edf5" data-original="#e9edf5" style="" class=""/><path xmlns="http://www.w3.org/2000/svg" d="m116.796875 127.636719 29.828125-29.828125 86.8125 86.8125-29.828125 29.828125zm0 0" fill="#e6e6e6" data-original="#e6e6e6" style="" class=""/><path xmlns="http://www.w3.org/2000/svg" d="m293.507812 304.347656 29.828126-29.828125 86.8125 86.8125-29.828126 29.828125zm0 0" fill="#d7d7d7" data-original="#d7d7d7" style="" class=""/></g></svg>
