<svg width="213" height="139" viewBox="0 0 213 139" fill="none" xmlns="http://www.w3.org/2000/svg">
<g clip-path="url(#clip0)">
<path d="M64.9281 0C72.4731 0 80.0182 2.44704 87.1554 7.13719C99.3905 15.294 113.665 15.294 125.9 7.13719C139.971 -2.24312 156.08 -2.24312 170.355 7.13719C182.59 15.294 196.864 15.294 209.099 7.13719C210.323 6.32152 211.75 6.72935 212.566 7.74895C213.382 8.97247 212.974 10.6038 211.954 11.2156C197.884 20.5959 181.774 20.5959 167.5 11.2156C155.265 3.0588 140.99 3.0588 128.755 11.2156C114.685 20.5959 98.5749 20.5959 84.3005 11.2156C72.0653 3.0588 57.7909 3.0588 45.5557 11.2156C31.4852 20.5959 15.3756 20.5959 1.10117 11.2156C-0.122352 10.3999 -0.326272 8.76855 0.489408 7.74895C1.30509 6.52543 2.93645 6.32152 3.95605 7.13719C16.1912 15.294 30.4656 15.294 42.7008 7.13719C49.838 2.44704 57.3831 0 64.9281 0Z" fill="#FC5185"/>
<path d="M64.9281 40.1455C72.4731 40.1455 80.0182 42.5925 87.1554 47.2827C99.3905 55.4395 113.665 55.4395 125.9 47.2827C139.971 37.9024 156.08 37.9024 170.355 47.2827C182.59 55.4395 196.864 55.4395 209.099 47.2827C210.323 46.467 211.75 46.8749 212.566 47.8945C213.382 49.118 212.974 50.5454 211.954 51.3611C197.884 60.7414 181.774 60.7414 167.5 51.3611C155.265 43.2043 140.99 43.2043 128.755 51.3611C114.685 60.7414 98.5749 60.7414 84.3005 51.3611C72.0653 43.2043 57.7909 43.2043 45.5557 51.3611C31.4852 60.7414 15.3756 60.7414 1.10117 51.3611C-0.122352 50.5454 -0.326272 48.9141 0.489408 47.8945C1.30509 46.6709 2.93645 46.467 3.95605 47.2827C16.1912 55.4395 30.4656 55.4395 42.7008 47.2827C49.838 42.5925 57.3831 40.1455 64.9281 40.1455Z" fill="#FC5185"/>
<path d="M64.9281 80.5615C72.4731 80.5615 80.0182 83.0086 87.1554 87.6987C99.3905 95.8555 113.665 95.8555 125.9 87.6987C139.971 78.3184 156.08 78.3184 170.355 87.6987C182.59 95.8555 196.864 95.8555 209.099 87.6987C210.323 86.883 211.75 87.2909 212.566 88.3105C213.382 89.534 212.974 90.9614 211.954 91.7771C197.884 101.157 181.774 101.157 167.5 91.7771C155.265 83.6203 140.99 83.6203 128.755 91.7771C114.685 101.157 98.5749 101.157 84.3005 91.7771C72.0653 83.6203 57.7909 83.6203 45.5557 91.7771C31.4852 101.157 15.3756 101.157 1.10117 91.7771C-0.122352 90.9614 -0.326272 89.3301 0.489408 88.3105C1.30509 87.087 2.93645 86.883 3.95605 87.6987C16.1912 95.8555 30.4656 95.8555 42.7008 87.6987C49.838 83.0086 57.3831 80.5615 64.9281 80.5615Z" fill="#FC5185"/>
<path d="M64.9281 120.686C72.4731 120.686 80.0182 123.133 87.1554 127.823C99.3905 135.98 113.665 135.98 125.9 127.823C139.971 118.443 156.08 118.443 170.355 127.823C182.59 135.98 196.864 135.98 209.099 127.823C210.323 127.008 211.75 127.415 212.566 128.435C213.382 129.659 212.974 131.086 211.954 131.902C197.884 141.282 181.774 141.282 167.5 131.902C155.265 123.745 140.99 123.745 128.755 131.902C114.685 141.282 98.5749 141.282 84.3005 131.902C72.0653 123.745 57.7909 123.745 45.5557 131.902C31.4852 141.282 15.3756 141.282 1.10117 131.902C-0.122352 131.086 -0.326272 129.455 0.489408 128.435C1.30509 127.211 2.93645 127.008 3.95605 127.823C16.1912 135.98 30.4656 135.98 42.7008 127.823C49.838 123.133 57.3831 120.686 64.9281 120.686Z" fill="#FC5185"/>
</g>
<defs>
<clipPath id="clip0">
<rect width="213" height="138.971" fill="white"/>
</clipPath>
</defs>
</svg>
