<svg width="134" height="516" viewBox="0 0 134 516" fill="none" xmlns="http://www.w3.org/2000/svg">
<g clip-path="url(#clip0)">
<path d="M57.0791 515.488L133.639 439.395L209.925 515.488H230.505L133.639 419.213L36.7728 515.488H57.0791Z" fill="#3FC1C9"/>
<path d="M0 430.428V450.611L133.637 317.789L267 450.611V430.428L133.637 297.606L0 430.428Z" fill="#3FC1C9"/>
<path d="M0 491.24V511.422L133.637 378.6L267 511.422V491.24L133.637 358.418L0 491.24Z" fill="#3FC1C9"/>
<path d="M4.39054 0.294678L0 4.65844V24.8408L24.6968 0.294678H4.39054Z" fill="#3FC1C9"/>
<path d="M65.5837 0.294678L0 65.4783V85.6607L85.8899 0.294678H65.5837Z" fill="#3FC1C9"/>
<path d="M118.272 515.504L133.639 500.231L148.731 515.504H169.312L133.639 480.049L97.9657 515.504H118.272Z" fill="#3FC1C9"/>
<path d="M126.777 0.294678L0 126.298V146.48L133.637 13.9314L267 146.48V126.298L140.497 0.294678H126.777Z" fill="#3FC1C9"/>
<path d="M0 308.797V328.979L133.637 196.157L267 328.979V308.797L133.637 175.975L0 308.797Z" fill="#3FC1C9"/>
<path d="M0 369.568V389.75L133.637 256.928L267 389.75V369.568L133.637 236.746L0 369.568Z" fill="#3FC1C9"/>
<path d="M0 187.125V207.308L133.637 74.7584L267 207.308V187.125L133.637 54.3032L0 187.125Z" fill="#3FC1C9"/>
<path d="M0 247.921V268.103L133.637 135.281L267 268.103V247.921L133.637 115.099L0 247.921Z" fill="#3FC1C9"/>
</g>
<defs>
<clipPath id="clip0">
<rect width="267" height="515.209" fill="white" transform="translate(0 0.294678)"/>
</clipPath>
</defs>
</svg>
